<?xml version="1.0" encoding="utf-8"?>
<!-- Generator: Adobe Illustrator 15.1.0, SVG Export Plug-In  -->
<!DOCTYPE svg PUBLIC "-//W3C//DTD SVG 1.1//EN" "http://www.w3.org/Graphics/SVG/1.1/DTD/svg11.dtd" [
	<!ENTITY ns_flows "http://ns.adobe.com/Flows/1.0/">
]>
<svg version="1.1"
	 xmlns="http://www.w3.org/2000/svg" xmlns:xlink="http://www.w3.org/1999/xlink" xmlns:a="http://ns.adobe.com/AdobeSVGViewerExtensions/3.0/"
	 x="0px" y="0px" width="22px" height="29px" viewBox="-0.002 -0.045 22 29" enable-background="new -0.002 -0.045 22 29"
	 xml:space="preserve">
<defs>
</defs>
<path d="M14.688,0H3.077C1.379,0,0,1.381,0,3.077v22.756c0,1.696,1.379,3.077,3.077,3.077h15.842c1.695,0,3.077-1.381,3.077-3.077
	V7.283L14.688,0z M18.919,27.025H3.077c-0.658,0-1.192-0.534-1.192-1.191V3.077c0-0.656,0.535-1.19,1.192-1.19l10.906-0.012v4.031
	c0,1.179,0.956,2.135,2.134,2.135l3.95-0.011l0.043,17.804C20.11,26.491,19.577,27.025,18.919,27.025z"/>
</svg>
