<?xml version="1.0" encoding="utf-8"?>
<!-- Generator: Adobe Illustrator 15.1.0, SVG Export Plug-In  -->
<!DOCTYPE svg PUBLIC "-//W3C//DTD SVG 1.1//EN" "http://www.w3.org/Graphics/SVG/1.1/DTD/svg11.dtd" [
	<!ENTITY ns_flows "http://ns.adobe.com/Flows/1.0/">
]>
<svg version="1.1"
	 xmlns="http://www.w3.org/2000/svg" xmlns:xlink="http://www.w3.org/1999/xlink" xmlns:a="http://ns.adobe.com/AdobeSVGViewerExtensions/3.0/"
	 x="0px" y="0px" width="22px" height="29px" viewBox="-0.002 -0.045 22 29" enable-background="new -0.002 -0.045 22 29"
	 xml:space="preserve">
<defs>
</defs>
<path d="M14.688,0H3.077C1.379,0,0,1.38,0,3.077v22.756c0,1.696,1.379,3.077,3.077,3.077h15.842c1.695,0,3.077-1.38,3.077-3.077
	V7.282L14.688,0z M18.919,27.024H3.077c-0.658,0-1.192-0.534-1.192-1.192V3.077c0-0.657,0.535-1.191,1.192-1.191l10.906-0.011v4.031
	c0,1.179,0.956,2.135,2.134,2.135l3.95-0.011l0.043,17.804C20.11,26.491,19.577,27.024,18.919,27.024z"/>
<path d="M4.303,17.981v-2.142h1.535c1.299,0,2.021-0.895,2.021-1.942c0-1.057-0.713-1.942-2.021-1.942H3.022v6.026H4.303z
	 M5.885,14.96H4.303v-2.032h1.582c0.505,0,1.01,0.557,1.01,1.063C6.895,14.488,6.39,14.96,5.885,14.96z"/>
<path d="M10.81,17.981c1.886,0,3.164-1.193,3.164-3.009s-1.277-3.018-3.164-3.018H8.998v6.026H10.81z M10.81,16.977h-0.53v-4.018
	h0.53c1.236,0,2.199,0.947,2.199,2.013C13.008,15.993,12.001,16.977,10.81,16.977z"/>
<path d="M16.284,17.981v-2.056h2.666v-0.973h-2.666v-2.024h2.729v-0.973h-4.01v6.026H16.284z"/>
</svg>
