<?xml version="1.0" encoding="utf-8"?>
<!-- Generator: Adobe Illustrator 16.0.0, SVG Export Plug-In . SVG Version: 6.00 Build 0)  -->
<!DOCTYPE svg PUBLIC "-//W3C//DTD SVG 1.1//EN" "http://www.w3.org/Graphics/SVG/1.1/DTD/svg11.dtd">
<svg version="1.1" id="Capa_1" xmlns="http://www.w3.org/2000/svg" xmlns:xlink="http://www.w3.org/1999/xlink" x="0px" y="0px"
	 width="66.535px" height="64.053px" viewBox="0 -32.053 66.535 64.053" enable-background="new 0 -32.053 66.535 64.053"
	 xml:space="preserve">
<g>
	<path d="M39.606,5.066c5.757-2.469,9.802-8.189,9.802-14.839c0-0.129-0.015-0.255-0.019-0.384h-2.001
		c0.004,0.128,0.02,0.254,0.02,0.384c0,7.761-6.288,14.078-14.036,14.134c-0.035-0.001-0.07-0.003-0.104-0.003
		s-0.069,0.002-0.104,0.003C25.415,4.305,19.127-2.012,19.127-9.773c0-6.861,4.913-12.592,11.405-13.87v-2.021
		c-7.599,1.305-13.405,7.925-13.405,15.891c0,6.65,4.045,12.371,9.802,14.839C14.458,7.684,0,17.416,0,31.052c0,0.553,0.448,1,1,1
		s1-0.447,1-1C2,16.766,20.575,6.417,33.165,6.361c0.034,0,0.068,0.005,0.103,0.005c0.035,0,0.069-0.005,0.104-0.005
		c12.448,0.054,31.163,9.887,31.163,24.69c0,0.553,0.447,1,1,1s1-0.447,1-1C66.535,17.416,52.077,7.684,39.606,5.066z"/>
	<path d="M52.938-24.021h-7.031v-7.031c0-0.552-0.447-1-1-1s-1,0.448-1,1v7.031h-7.031c-0.553,0-1,0.448-1,1s0.447,1,1,1h7.031
		v7.031c0,0.552,0.447,1,1,1s1-0.448,1-1v-7.031h7.031c0.553,0,1-0.448,1-1S53.491-24.021,52.938-24.021z"/>
</g>
</svg>
