<?xml version="1.0" encoding="iso-8859-1"?>
<!-- Generator: Adobe Illustrator 15.0.2, SVG Export Plug-In . SVG Version: 6.00 Build 0)  -->
<!DOCTYPE svg PUBLIC "-//W3C//DTD SVG 1.1//EN" "http://www.w3.org/Graphics/SVG/1.1/DTD/svg11.dtd">
<svg version="1.1" id="Layer_1" xmlns="http://www.w3.org/2000/svg" xmlns:xlink="http://www.w3.org/1999/xlink" x="0px" y="0px"
	 width="78px" height="63.465px" viewBox="0 0 78 63.465" style="enable-background:new 0 0 78 63.465;" xml:space="preserve">
<path style="fill:#231F20;" d="M39.256,32.28c-8.9,0-16.141-7.24-16.141-16.139C23.115,7.241,30.356,0,39.256,0
	c8.9,0,16.141,7.241,16.141,16.141C55.396,25.04,48.156,32.28,39.256,32.28 M39.256,2c-7.797,0-14.141,6.343-14.141,14.141
	c0,7.796,6.344,14.139,14.141,14.139s14.141-6.343,14.141-14.139C53.396,8.343,47.053,2,39.256,2"/>
<path style="fill:#231F20;" d="M6,37.465c-0.553,0-1-0.448-1-1v-10c0-0.552,0.447-1,1-1s1,0.448,1,1v10
	C7,37.017,6.553,37.465,6,37.465"/>
<path style="fill:#231F20;" d="M67.321,43.484c-6.834-8.25-19.026-13.212-28.065-13.212c-9.145,0-21.518,5.077-28.304,13.502
	c0.497,0.521,0.925,1.107,1.254,1.755c6.241-8.083,18.159-13.257,27.05-13.257c8.693,0,20.486,4.808,26.814,12.762
	C66.417,44.462,66.837,43.941,67.321,43.484"/>
<path style="fill:#231F20;" d="M70.204,34.809l0.104-0.666l-0.647-0.328c-1.384-0.701-2.23-2.099-2.23-3.645
	c0-0.733,0.57-1.441,0.57-2.056v2.29l3.498,2.04L75,30.408v-2.302c0,0.616,0.579,1.324,0.581,2.058
	c-0.004,1.477-0.795,2.843-2.079,3.562l-0.506,0.287l0.006,8.586c0.708,0.135,1.38,0.371,2.001,0.693L75,35.15
	c1.611-1.129,2.594-2.987,2.599-4.986c-0.006-2.177-1.182-4.199-3.069-5.277l-1.497-0.854l0.004,5.219l-1.532,0.884l-1.531-0.886
	l-0.004-5.227l-1.498,0.863c-1.882,1.084-3.053,3.108-3.056,5.284c0.001,2.092,1.055,3.998,2.789,5.114l0.002,7.907
	c0.624-0.299,1.295-0.511,2-0.624L70.204,34.809z"/>
<path style="fill:#231F20;" d="M4,39.465h1v-2h2v2h1v3.4c0.725,0.247,1.396,0.604,2,1.052v-6.452H9v-2H3v2H2v5.825
	c0.621-0.321,1.292-0.558,2-0.692V39.465z"/>
<path style="fill:#231F20;" d="M11.215,50.465H6.869c-0.48,0-0.869-0.448-0.869-1s0.389-1,0.869-1h4.346c0.48,0,0.869,0.448,0.869,1
	S11.695,50.465,11.215,50.465"/>
<path style="fill:#231F20;" d="M11.215,54.465H6.869c-0.48,0-0.869-0.448-0.869-1s0.389-1,0.869-1h4.346c0.48,0,0.869,0.448,0.869,1
	S11.695,54.465,11.215,54.465"/>
<path style="fill:#231F20;" d="M11.215,58.465H6.869c-0.48,0-0.869-0.448-0.869-1s0.389-1,0.869-1h4.346c0.48,0,0.869,0.448,0.869,1
	S11.695,58.465,11.215,58.465"/>
<path style="fill:#231F20;" d="M12.201,45.331c-0.281-0.616-0.706-1.175-1.128-1.671c-0.251-0.294-0.549-0.571-0.841-0.813
	c-0.513-0.425-1.099-0.765-1.715-1c-0.635-0.243-1.329-0.381-2.036-0.381H6.27c-0.401,0-0.791,0.047-1.169,0.127
	C4.498,41.72,3.928,41.945,3.4,42.25C1.384,43.417,0,45.769,0,48.479v7.847c0,3.867,2.812,7.14,6.27,7.14h0.211
	c3.457,0,6.519-3.272,6.519-7.14v-7.847C13,47.346,12.631,46.277,12.201,45.331 M11,56.326c0,2.819-1.999,5.14-4.519,5.14H6.27
	c-2.52,0-4.27-2.32-4.27-5.14v-7.847c0-1.718,0.617-3.184,1.781-4.111c0.748-0.595,1.504-0.902,2.489-0.902h0.211
	c0.985,0,1.891,0.308,2.638,0.902c0.321,0.256,0.61,0.536,0.862,0.875c0.431,0.573,0.73,1.238,0.9,1.983
	C10.976,47.631,11,48.042,11,48.479V56.326z"/>
<path style="fill:#231F20;" d="M66.785,50.465h4.346c0.48,0,0.869-0.448,0.869-1s-0.389-1-0.869-1h-4.346
	c-0.479,0-0.869,0.448-0.869,1S66.306,50.465,66.785,50.465"/>
<path style="fill:#231F20;" d="M66.785,54.465h4.346c0.48,0,0.869-0.448,0.869-1s-0.389-1-0.869-1h-4.346
	c-0.479,0-0.869,0.448-0.869,1S66.306,54.465,66.785,54.465"/>
<path style="fill:#231F20;" d="M66.785,58.465h4.346c0.48,0,0.869-0.448,0.869-1s-0.389-1-0.869-1h-4.346
	c-0.479,0-0.869,0.448-0.869,1S66.306,58.465,66.785,58.465"/>
<path style="fill:#231F20;" d="M65,48.48v7.847c0,3.867,3.062,7.139,6.519,7.139h0.212c3.458,0,6.27-3.271,6.27-7.139V48.48
	c0-2.71-1.384-5.062-3.4-6.229c-0.527-0.306-1.098-0.531-1.7-0.658c-0.378-0.081-0.769-0.127-1.169-0.127h-0.212
	c-0.707,0-1.4,0.139-2.035,0.38c-0.616,0.236-1.202,0.575-1.716,1.001c-0.292,0.242-0.59,0.521-0.841,0.814
	c-0.422,0.496-0.847,1.053-1.128,1.67C65.369,46.278,65,47.346,65,48.48 M67,48.48c0-0.438,0.024-0.849,0.119-1.254
	c0.17-0.745,0.469-1.409,0.899-1.983c0.253-0.338,0.541-0.619,0.862-0.875c0.747-0.594,1.653-0.902,2.638-0.902h0.212
	c0.984,0,1.74,0.309,2.488,0.902C75.383,45.294,76,46.761,76,48.48v7.847c0,2.819-1.75,5.139-4.27,5.139h-0.212
	c-2.52,0-4.519-2.319-4.519-5.139V48.48z"/>
</svg>
