<?xml version="1.0" encoding="iso-8859-1"?>
<!-- Generator: Adobe Illustrator 15.0.2, SVG Export Plug-In . SVG Version: 6.00 Build 0)  -->
<!DOCTYPE svg PUBLIC "-//W3C//DTD SVG 1.1//EN" "http://www.w3.org/Graphics/SVG/1.1/DTD/svg11.dtd">
<svg version="1.1" id="Capa_1" xmlns="http://www.w3.org/2000/svg" xmlns:xlink="http://www.w3.org/1999/xlink" x="0px" y="0px"
	 width="66.535px" height="64.053px" viewBox="0 0 66.535 64.053" style="enable-background:new 0 0 66.535 64.053;"
	 xml:space="preserve">
<path d="M39.605,37.092c-0.002-0.001-0.005-0.001-0.007-0.001c5.767-2.481,9.81-8.247,9.81-14.964
	c0-8.983-7.227-16.267-16.141-16.267s-16.141,7.283-16.141,16.267c0,6.718,4.043,12.483,9.81,14.964
	c-0.002,0-0.005,0.001-0.007,0.001C14.372,39.735,0,49.443,0,63.078c0,0.553,0.448,1,1,1s1-0.447,1-1
	c0-14.283,18.567-24.63,31.157-24.691c0.037,0.001,0.073,0.006,0.11,0.006l0,0c0,0,0,0,0,0c0.001,0,0.003,0,0.004,0
	c0.036,0,0.071-0.006,0.106-0.006c12.448,0.059,31.156,9.891,31.156,24.69c0,0.553,0.447,1,1,1s1-0.447,1-1
	C66.535,49.443,52.277,39.741,39.605,37.092z M19.125,22.127c0-7.872,6.332-14.253,14.143-14.253S47.41,14.255,47.41,22.127
	c0,7.871-6.332,14.251-14.143,14.251S19.125,29.998,19.125,22.127z"/>
</svg>
