<?xml version="1.0" encoding="utf-8"?>
<!-- Generator: Adobe Illustrator 15.0.2, SVG Export Plug-In . SVG Version: 6.00 Build 0)  -->
<!DOCTYPE svg PUBLIC "-//W3C//DTD SVG 1.1//EN" "http://www.w3.org/Graphics/SVG/1.1/DTD/svg11.dtd">
<svg version="1.1" id="Capa_1" xmlns="http://www.w3.org/2000/svg" xmlns:xlink="http://www.w3.org/1999/xlink" x="0px" y="0px"
	 width="595.279px" height="684.608px" viewBox="0 78.641 595.279 684.608" enable-background="new 0 78.641 595.279 684.608"
	 xml:space="preserve">
<g>
	<g>
		<path d="M535.202,338.32h-13.22v-35.411c0-123.701-100.564-224.268-224.269-224.268c-123.7,0-224.267,100.567-224.267,224.268
			v35.411H59.078c-32.578,0-59.018,26.44-59.018,59.018V704.23c0,32.578,26.439,59.019,59.018,59.019h476.125
			c32.577,0,59.018-26.439,59.018-59.019V397.337C594.219,364.76,567.78,338.32,535.202,338.32z M97.054,302.909
			c0-110.717,89.943-200.66,200.66-200.66c110.719,0,200.661,89.943,200.661,200.66v35.411H97.054V302.909z M570.612,704.229
			c0,19.596-15.815,35.411-35.409,35.411H59.078c-19.594,0-35.411-15.815-35.411-35.411V397.338c0-19.594,15.817-35.41,35.411-35.41
			h476.125c19.594,0,35.409,15.816,35.409,35.41V704.229L570.612,704.229z"/>
		<path d="M297.715,409.142c-33.993,0-64.92,21.247-77.194,53.115c-11.567,30.454-4.249,64.448,17.94,84.985v86.168
			c0,21.009,11.332,40.603,29.511,51.227c8.97,5.193,19.12,7.791,29.508,7.791c10.386,0,20.539-2.834,29.508-7.791
			c18.178-10.624,29.51-29.98,29.51-50.99V547.48c22.19-20.538,29.744-54.533,17.941-84.986
			C362.635,430.389,331.71,409.142,297.715,409.142z M337.847,532.37c-2.832,2.125-4.484,5.667-4.484,9.442v91.832
			c0,12.512-6.847,24.315-17.706,30.688c-10.859,6.138-24.551,6.138-35.41,0c-10.858-6.373-17.706-17.941-17.706-30.688v-91.832
			c0-3.539-1.65-7.081-4.484-9.442c-17.47-13.691-23.843-38.95-15.108-61.852c8.734-22.661,30.926-37.771,55.004-37.771
			c24.08,0,46.508,15.108,55.005,37.771C361.454,493.42,355.317,518.679,337.847,532.37z"/>
	</g>
</g>
</svg>
