<?xml version="1.0" encoding="utf-8"?>
<!-- Generator: Adobe Illustrator 16.0.0, SVG Export Plug-In . SVG Version: 6.00 Build 0)  -->
<!DOCTYPE svg PUBLIC "-//W3C//DTD SVG 1.1//EN" "http://www.w3.org/Graphics/SVG/1.1/DTD/svg11.dtd">
<svg version="1.1"
	 id="Layer_1" xmlns:rdf="http://www.w3.org/1999/02/22-rdf-syntax-ns#" xmlns:svg="http://www.w3.org/2000/svg" xmlns:inkscape="http://www.inkscape.org/namespaces/inkscape" xmlns:dc="http://purl.org/dc/elements/1.1/" xmlns:sodipodi="http://sodipodi.sourceforge.net/DTD/sodipodi-0.dtd" xmlns:cc="http://creativecommons.org/ns#"
	 xmlns="http://www.w3.org/2000/svg" xmlns:xlink="http://www.w3.org/1999/xlink" x="0px" y="0px" width="512px" height="512px"
	 viewBox="0 0 512 512" enable-background="new 0 0 512 512" xml:space="preserve">
<path id="path9-3" d="M386.788,267.99c-14.119-15.223-32.919-25.305-56.396-30.238v-2.047c16.339-6.796,29.135-17.432,38.409-31.897
	c9.269-14.458,13.906-30.962,13.906-49.505c0-15.993-3.363-30.114-10.074-42.372c-6.726-12.25-16.89-22.03-30.499-29.341
	c-12.597-6.806-26.068-11.272-40.449-13.401C287.306,67.061,266.169,66,238.262,66h-134.24v380h152.109
	c26.365,0,48.111-2.391,65.201-7.151c17.096-4.755,32.799-12.755,47.086-23.99c12.087-9.357,21.697-21.182,28.838-35.477
	c7.138-14.292,10.723-30.873,10.723-49.761C407.979,303.768,400.915,283.217,386.788,267.99L386.788,267.99z M198.971,135.666h6.629
	c17.014,0,29.817,0.129,38.403,0.382c8.601,0.258,16.033,1.749,22.341,4.466c6.635,2.9,11.514,7.574,14.662,14.039
	c3.149,6.469,4.728,12.762,4.728,18.881c0,8.347-1.454,15.66-4.336,21.95c-2.9,6.302-8.173,11.235-15.827,14.803
	c-6.98,3.235-13.733,5.018-20.286,5.364c-6.554,0.344-17.991,0.503-34.325,0.503H198.97L198.971,135.666L198.971,135.666z
	 M303.726,352.465c-3.996,7.229-10.336,12.725-19.012,16.453c-9.876,4.262-19.571,6.562-29.093,6.895
	c-9.53,0.341-26.716,0.52-51.544,0.52h-5.106v-95.201h17.6c17.021,0,30.581,0.128,40.703,0.387
	c10.124,0.254,18.082,1.493,23.862,3.703c9.532,3.404,16.669,8.417,21.438,15.053c4.77,6.635,7.153,15.822,7.153,27.562
	C309.728,337.021,307.723,345.238,303.726,352.465L303.726,352.465z"/>
</svg>
